<?xml version="1.0" standalone="no"?>
<!DOCTYPE svg PUBLIC "-//W3C//DTD SVG 20010904//EN"
 "http://www.w3.org/TR/2001/REC-SVG-20010904/DTD/svg10.dtd">
<svg version="1.0" xmlns="http://www.w3.org/2000/svg"
 width="1024.000000pt" height="1024.000000pt" viewBox="0 0 1024.000000 1024.000000"
 preserveAspectRatio="xMidYMid meet">
<metadata>
Created by potrace 1.16, written by Peter Selinger 2001-2019
</metadata>
<g transform="translate(0.000000,1024.000000) scale(0.100000,-0.100000)"
fill="#000000" stroke="none">
<path d="M4865 8468 c-167 -18 -391 -86 -550 -166 -201 -100 -393 -260 -521
-435 l-44 -59 0 301 0 301 -1254 0 c-689 0 -1281 3 -1315 6 l-61 7 0 -382 0
-381 445 0 445 0 0 -1135 0 -1135 425 0 425 0 0 1135 0 1135 399 0 399 0 -39
-89 c-81 -188 -118 -367 -126 -611 -13 -392 63 -684 257 -980 79 -120 269
-311 395 -396 297 -202 593 -283 983 -271 124 4 207 12 277 27 647 138 1110
623 1211 1267 20 130 23 419 5 543 -60 417 -266 771 -588 1014 -147 111 -420
235 -608 276 -166 37 -386 48 -560 28z m370 -803 c131 -33 261 -117 352 -226
57 -69 127 -212 155 -314 31 -115 31 -354 -1 -470 -92 -341 -355 -556 -678
-555 -109 0 -204 23 -303 72 -68 33 -102 58 -170 127 -174 177 -239 361 -227
644 7 154 22 219 82 342 150 310 467 462 790 380z"/>
<path d="M7888 8413 l-1158 -3 0 -390 0 -390 720 -2 721 -3 -721 -844 -720
-844 0 -149 0 -148 1515 0 1515 0 0 380 0 380 -780 2 -780 3 611 670 c336 369
648 708 694 755 45 47 122 128 169 180 l86 95 0 157 0 158 -357 -2 c-197 -2
-879 -4 -1515 -5z"/>
<path d="M3780 4259 c0 -1077 1 -1098 60 -1279 143 -438 517 -743 1020 -831
160 -28 420 -28 580 0 296 52 532 170 726 365 178 179 269 343 327 591 20 88
21 116 24 1113 l4 1022 -425 0 -426 0 -2 -972 -3 -973 -27 -69 c-56 -144 -148
-236 -277 -277 -93 -30 -290 -37 -385 -15 -168 40 -278 152 -333 341 -16 55
-18 140 -21 1013 l-3 952 -419 0 -420 0 0 -981z"/>
<path d="M1412 3713 l3 -1518 423 -3 422 -2 0 515 0 515 540 0 540 0 0 370 0
370 -540 0 -540 0 0 260 0 260 650 0 650 0 0 375 0 375 -1075 0 -1075 0 2
-1517z"/>
<path d="M6730 4810 l0 -420 510 0 510 0 0 -540 0 -540 375 0 375 0 0 540 0
540 255 0 255 0 0 -1085 0 -1085 -1135 0 -1135 0 2 -422 3 -423 1133 -3 1132
-2 0 -445 0 -445 375 0 375 0 0 2375 0 2375 -1515 0 -1515 0 0 -420z"/>
</g>
</svg>
